<svg width="501" height="501" viewBox="0 0 501 501" fill="none" xmlns="http://www.w3.org/2000/svg">
<g clip-path="url(#clip0_1_961)">
<path d="M405.477 328.889C404.681 311.454 390.588 298.079 378.885 285.103C364.872 269.579 353.088 251.985 344.012 233.117C341.703 228.261 339.474 223.245 337.244 218.309C349.665 196.416 361.846 172.533 365.35 165.846C372.834 151.595 391.225 120.865 391.623 107.411C392.101 93.3199 378.487 81.4579 364.394 80.2637C349.585 78.99 337.085 87.0307 326.257 95.7083C332.388 81.856 315.907 56.8581 296.162 53.196C271.321 48.5786 252.69 64.0231 245.763 82.3336C238.041 67.924 225.541 55.3455 201.814 58.6096C182.706 61.2367 156.432 81.856 159.935 100.724C152.531 87.6676 135.97 80.423 121.48 84.2443C106.989 88.0656 96.0022 102.714 96.6391 117.681C97.4353 135.036 106.83 146.182 119.012 162.422C119.012 162.502 140.668 194.983 140.747 194.983C151.018 209.234 159.139 222.29 165.747 232.878C159.935 248.322 155.079 264.324 147.117 278.813C141.862 288.367 136.13 298.637 129.521 307.314C121.958 317.186 110.891 325.545 110.413 339.079C109.935 353.17 123.55 365.032 137.642 366.226C152.451 367.5 164.951 359.459 175.779 350.782C169.728 364.634 179.919 391.145 193.056 395.125C225.7 404.917 240.509 389.712 256.353 364.156C270.843 376.894 289.394 386.846 308.582 384.696C327.77 382.626 345.684 364.634 342.181 345.687C349.585 358.743 366.146 365.987 380.636 362.166C395.127 358.345 406.194 343.856 405.477 328.889Z" fill="#DEDF1F"></path>
<path d="M195.524 176.196C195.445 165.767 203.805 157.249 214.235 157.169C224.665 157.089 233.184 165.449 233.263 175.878" stroke="#010302" stroke-width="5.00103" stroke-miterlimit="10" stroke-linecap="round" stroke-linejoin="round"></path>
<path d="M275.303 175.478C275.223 165.049 283.583 156.531 294.013 156.451C304.443 156.372 312.962 164.731 313.042 175.16" stroke="#010302" stroke-width="5.00103" stroke-miterlimit="10" stroke-linecap="round" stroke-linejoin="round"></path>
<path d="M254.124 408.578C254.124 408.578 268.296 336.451 250.859 329.923" stroke="#010302" stroke-width="5.00103" stroke-miterlimit="10" stroke-linecap="round" stroke-linejoin="round"></path>
<path d="M199.823 323.235C199.823 323.235 249.504 307.87 257.864 345.685C257.864 345.685 220.523 362.881 199.823 323.235Z" stroke="#010302" stroke-width="5.00103" stroke-miterlimit="10" stroke-linecap="round" stroke-linejoin="round"></path>
<path d="M261.45 363.122C261.45 363.122 251.578 312.011 290.192 307.951C290.113 307.872 303.09 346.801 261.45 363.122Z" stroke="#010302" stroke-width="5.00103" stroke-miterlimit="10" stroke-linecap="round" stroke-linejoin="round"></path>
<path d="M321.962 404.013C323.695 398.89 311.66 390.193 295.081 384.588C278.503 378.983 263.659 378.592 261.926 383.715C260.194 388.838 272.229 397.535 288.808 403.14C305.386 408.745 320.23 409.136 321.962 404.013Z" stroke="#010302" stroke-width="5.00103" stroke-miterlimit="10" stroke-linecap="round" stroke-linejoin="round"></path>
<path d="M261.925 383.74L257.467 397.035C255.715 402.21 267.737 410.888 284.298 416.46C300.858 422.033 315.667 422.431 317.419 417.256L321.878 403.961" stroke="#010302" stroke-width="5.00103" stroke-miterlimit="10" stroke-linecap="round" stroke-linejoin="round"></path>
<path d="M249.189 435.17C266.681 434.605 280.719 429.765 280.545 424.359C280.37 418.954 266.048 415.031 248.556 415.596C231.064 416.161 217.026 421.002 217.2 426.407C217.375 431.812 231.697 435.736 249.189 435.17Z" stroke="#010302" stroke-width="5.00103" stroke-miterlimit="10" stroke-linecap="round" stroke-linejoin="round"></path>
<path d="M217.182 426.411L217.66 440.422C217.819 445.836 232.15 449.816 249.587 449.259C267.103 448.702 281.115 443.845 280.956 438.432L280.478 424.42" stroke="#010302" stroke-width="5.00103" stroke-miterlimit="10" stroke-linecap="round" stroke-linejoin="round"></path>
<path d="M225.909 392.429C241.73 384.948 252.681 374.92 250.369 370.031C248.057 365.142 233.357 367.244 217.536 374.725C201.716 382.206 190.765 392.233 193.077 397.122C195.389 402.011 210.089 399.91 225.909 392.429Z" stroke="#010302" stroke-width="5.00103" stroke-miterlimit="10" stroke-linecap="round" stroke-linejoin="round"></path>
<path d="M193.135 397.114L199.106 409.772C201.415 414.708 216.144 412.558 231.909 405.154C247.753 397.671 258.66 387.64 256.351 382.704L250.38 370.046" stroke="#010302" stroke-width="5.00103" stroke-miterlimit="10" stroke-linecap="round" stroke-linejoin="round"></path>
</g>
<defs>
<clipPath id="clip0_1_961">
<rect width="308.838" height="399.249" fill="white" transform="translate(96.6387 52.4023)"></rect>
</clipPath>
</defs>
</svg>