<svg width="501" height="500" viewBox="0 0 501 500" fill="none" xmlns="http://www.w3.org/2000/svg">
<g clip-path="url(#clip0_1_1032)">
<path d="M113.661 169.633L115.006 87.6671C115.427 62.4468 136.022 42.2705 161.157 42.2705C161.409 42.2705 161.661 42.2705 161.914 42.2705C187.385 42.6908 207.728 63.7078 207.392 89.2644L206.047 171.23C206.047 172.996 206.047 174.761 206.131 176.527C206.719 187.624 223.364 187.035 223.364 175.938V105.574C223.364 85.3973 239.84 68.4996 260.015 68.92C279.518 69.3403 295.237 85.2291 295.237 104.817V189.053C295.237 199.729 312.723 200.654 313.731 190.986C315.413 174.509 314.824 154.249 313.983 137.94C313.479 127.095 312.975 116.25 312.386 105.489C311.125 80.0169 330.796 58.3274 356.267 57.0664C381.738 55.8895 403.426 75.4773 404.687 100.95L408.05 170.894C409.647 204.605 396.701 237.476 372.407 260.931C366.018 267.152 358.957 272.532 351.391 277.072C329.451 290.27 314.152 312.296 310.201 337.685L296.246 426.796C293.304 445.459 277.248 459.247 258.334 459.247C239.42 459.247 223.364 445.459 220.421 426.796L206.971 340.879C202.348 311.287 186.46 284.386 162.166 266.731C155.609 262.024 149.556 256.559 144.008 250.422C123.917 228.228 113.157 199.561 113.661 169.633Z" fill="#DEDF1F"></path>
<path d="M290.446 299.94L251.105 296.829L214.621 406.874L114.755 398.383L94.4114 312.718L242.11 323.815" stroke="black" stroke-width="5.00103" stroke-miterlimit="10" stroke-linecap="round" stroke-linejoin="round"></path>
<path d="M214.622 406.872L215.967 406.956C222.776 407.461 228.072 409.898 226.727 427.216C226.223 434.026 220.254 439.07 213.529 438.566L95.2528 429.318" stroke="black" stroke-width="5.00103" stroke-miterlimit="10" stroke-linecap="round" stroke-linejoin="round"></path>
<path d="M191.421 447.562C190.916 453.783 195.624 459.247 201.845 459.752C208.065 460.256 213.529 455.548 214.034 449.327C214.538 443.106 209.831 437.642 203.61 437.137C197.305 436.717 191.841 441.341 191.421 447.562Z" stroke="black" stroke-width="5.00103" stroke-miterlimit="10" stroke-linecap="round" stroke-linejoin="round"></path>
<path d="M99.8765 440.413C99.3721 446.634 104.08 452.099 110.3 452.603C116.521 453.107 121.985 448.4 122.489 442.179C122.994 435.958 118.286 430.493 112.066 429.989C105.761 429.484 100.297 434.192 99.8765 440.413Z" stroke="black" stroke-width="5.00103" stroke-miterlimit="10" stroke-linecap="round" stroke-linejoin="round"></path>
<path d="M211.091 321.964L201.003 403.257" stroke="black" stroke-width="5.00103" stroke-miterlimit="10" stroke-linecap="round" stroke-linejoin="round"></path>
<path d="M173.095 319.443L166.538 402.586" stroke="black" stroke-width="5.00103" stroke-miterlimit="10" stroke-linecap="round" stroke-linejoin="round"></path>
<path d="M132.408 316.834L132.24 399.053" stroke="black" stroke-width="5.00103" stroke-miterlimit="10" stroke-linecap="round" stroke-linejoin="round"></path>
<path d="M228.66 365.427L105.676 355.087" stroke="black" stroke-width="5.00103" stroke-miterlimit="10" stroke-linecap="round" stroke-linejoin="round"></path>
<path d="M274.223 295.567C274.728 287.413 281.789 281.276 289.859 281.864C298.013 282.369 304.15 289.43 303.561 297.501L274.223 295.567Z" fill="#C5C512" stroke="#C5C512" stroke-width="20.0041" stroke-miterlimit="10" stroke-linecap="round" stroke-linejoin="round"></path>
<path d="M308.269 216.71C307.177 232.178 293.726 243.779 278.259 242.687C262.791 241.594 251.191 228.143 252.283 212.674L308.269 216.71Z" stroke="black" stroke-width="5.00103" stroke-miterlimit="10" stroke-linecap="round" stroke-linejoin="round"></path>
<path d="M227.736 210.321C226.643 225.789 213.193 237.391 197.725 236.298C182.258 235.205 170.657 221.754 171.75 206.286L227.736 210.321Z" stroke="black" stroke-width="5.00103" stroke-miterlimit="10" stroke-linecap="round" stroke-linejoin="round"></path>
<path d="M254.046 225.119C253.542 217.721 223.531 216.376 224.12 222.681" stroke="black" stroke-width="5.00103" stroke-miterlimit="10" stroke-linecap="round" stroke-linejoin="round"></path>
</g>
<defs>
<clipPath id="clip0_1_1032">
<rect width="316.245" height="420.087" fill="white" transform="translate(93.1769 40.9854)"></rect>
</clipPath>
</defs>
</svg>