<svg width="500" height="500" viewBox="0 0 500 500" fill="none" xmlns="http://www.w3.org/2000/svg">
<path d="M382.087 268.901C399.919 260.555 411.528 248.794 413.804 234.453C417.522 211.082 395.745 186.498 359.552 168.287C388.006 165.48 407.127 157.437 409.024 145.296C412.514 123.595 359.779 97.1137 291.262 86.1115C222.744 75.1092 164.394 83.7593 160.904 105.46C158.931 117.601 174.562 131.183 200.74 142.792C160.676 148.787 132.298 165.328 128.504 188.698C126.228 203.039 133.512 217.835 147.853 231.342C118.033 244.772 97.6979 266.018 93.4487 292.271C84.6469 347.055 149.371 403.053 238.072 417.318C326.773 431.507 405.761 398.652 414.563 343.793C418.888 317.463 406.216 290.982 382.087 268.901Z" fill="#D1CDC0"></path>
<path d="M281.55 203.948C280.715 213.585 272.217 220.717 262.504 219.883C252.868 219.048 245.735 210.55 246.57 200.837" stroke="#E3E8A0" stroke-width="11.6691" stroke-miterlimit="10" stroke-linecap="round" stroke-linejoin="round"></path>
<path d="M213.714 170.335C215.384 160.699 224.641 154.249 234.277 155.919C243.914 157.588 250.363 166.845 248.694 176.481" stroke="black" stroke-width="5.00103" stroke-miterlimit="10" stroke-linecap="round" stroke-linejoin="round"></path>
<path d="M287.619 183.31C289.288 173.674 298.545 167.224 308.182 168.893C317.818 170.563 324.268 179.82 322.598 189.456" stroke="black" stroke-width="5.00103" stroke-miterlimit="10" stroke-linecap="round" stroke-linejoin="round"></path>
<path d="M142.694 209.185H95.4223C89.0485 209.185 83.8889 204.025 83.8889 197.651V104.473C83.8889 98.0996 89.0485 92.9399 95.4223 92.9399H142.694C149.068 92.9399 154.227 98.0996 154.227 104.473V197.651C154.303 204.025 149.068 209.185 142.694 209.185Z" stroke="black" stroke-width="5.00103" stroke-miterlimit="10" stroke-linecap="round" stroke-linejoin="round"></path>
<path d="M80.6252 175.949C67.4984 175.646 57.179 164.72 57.4825 151.669C57.786 138.542 68.7124 128.222 81.7634 128.526L80.6252 175.949Z" fill="#D1CDC0" stroke="#D1CDC0" stroke-width="20.0041" stroke-miterlimit="10" stroke-linecap="round" stroke-linejoin="round"></path>
<path d="M408.418 276.64C419.952 270.342 434.368 274.591 440.59 286.125C446.888 297.658 442.639 312.075 431.106 318.297L408.418 276.64Z" fill="#D1CDC0" stroke="#D1CDC0" stroke-width="20.0041" stroke-miterlimit="10" stroke-linecap="round" stroke-linejoin="round"></path>
<path d="M101.87 113.958C105.054 113.958 107.636 111.376 107.636 108.192C107.636 105.007 105.054 102.425 101.87 102.425C98.6847 102.425 96.1028 105.007 96.1028 108.192C96.1028 111.376 98.6847 113.958 101.87 113.958Z" fill="#E3E8A0"></path>
<path d="M101.87 130.271C105.054 130.271 107.636 127.69 107.636 124.505C107.636 121.32 105.054 118.738 101.87 118.738C98.6847 118.738 96.1028 121.32 96.1028 124.505C96.1028 127.69 98.6847 130.271 101.87 130.271Z" fill="#E3E8A0"></path>
<path d="M116.135 121.09C119.319 121.09 121.901 118.508 121.901 115.324C121.901 112.139 119.319 109.557 116.135 109.557C112.95 109.557 110.368 112.139 110.368 115.324C110.368 118.508 112.95 121.09 116.135 121.09Z" fill="#E3E8A0"></path>
</svg>